<svg width="391" height="452" viewBox="0 0 391 452" fill="none" xmlns="http://www.w3.org/2000/svg">
<path d="M278.354 110.3L307.316 124.589C324.399 133.017 331.434 153.709 323.029 170.805L274.365 269.794C265.96 286.89 245.299 293.917 228.216 285.489L199.254 271.2C182.171 262.772 175.137 242.08 183.541 224.983L232.205 125.995C240.61 108.898 261.272 101.871 278.354 110.3Z" fill="#FA641E"/>
<path opacity="0.4" d="M278.354 110.3L307.316 124.589C324.399 133.017 331.434 153.709 323.029 170.806L274.365 269.794C265.96 286.89 245.299 293.917 228.216 285.489L199.254 271.2C182.171 262.772 175.137 242.08 183.541 224.983L232.205 125.995C240.61 108.898 261.272 101.871 278.354 110.3Z" fill="black"/>
<path d="M165.217 443.383C165.551 443.627 165.917 443.824 166.305 443.968L169.625 445.43C171.075 446.073 172.989 446.702 175.193 447.535L178.818 448.617C180.108 449.026 181.515 449.363 183.008 449.684C190.247 451.369 197.665 452.14 205.091 451.98C214.97 451.838 224.749 449.963 233.989 446.439C239.341 444.381 244.472 441.78 249.301 438.675C254.48 435.162 259.214 431.023 263.395 426.35C272.697 416.008 279.094 403.349 281.925 389.682C283.449 382.298 283.782 374.716 282.911 367.225C281.976 359.389 279.585 351.8 275.865 344.856C272.008 337.697 266.95 331.267 260.915 325.849C254.711 320.227 247.515 315.828 239.702 312.881C231.822 309.975 223.422 308.784 215.053 309.387C210.94 309.699 206.897 310.635 203.061 312.164C199.219 313.685 195.772 316.07 192.984 319.138C190.223 322.179 188.321 325.91 187.474 329.943C186.627 333.96 187.164 338.147 188.997 341.815C189.867 343.605 191.001 345.251 192.361 346.698C193.66 348.13 195.12 349.406 196.711 350.499C199.807 352.633 203.204 354.284 206.788 355.397C219.377 358.766 232.709 357.943 244.796 353.051C256.883 348.158 267.079 339.458 273.864 328.247C276.531 323.688 278.529 318.764 279.794 313.627C282.831 301.732 282.281 289.194 278.213 277.616C276.626 273.163 274.498 268.925 271.877 264.999C270.949 263.668 270.166 262.718 269.659 262.075C269.425 261.727 269.153 261.409 268.847 261.125C269.015 261.51 269.229 261.873 269.485 262.206C269.92 262.908 270.645 263.902 271.5 265.247C277.82 275.57 280.95 287.556 280.49 299.679C280.338 304.274 279.662 308.836 278.474 313.276C277.202 318.253 275.213 323.016 272.573 327.414C266.416 337.505 257.344 345.453 246.575 350.192C240.643 352.893 234.308 354.582 227.827 355.192C221.002 355.844 214.117 355.2 207.527 353.292C204.156 352.233 200.964 350.666 198.059 348.642C196.591 347.637 195.248 346.459 194.057 345.134C192.839 343.836 191.827 342.356 191.056 340.747C189.449 337.511 188.983 333.818 189.736 330.279C190.525 326.639 192.256 323.274 194.753 320.527C197.323 317.723 200.491 315.543 204.018 314.153C207.621 312.7 211.418 311.798 215.285 311.477C223.312 310.924 231.364 312.08 238.919 314.869C253.87 320.652 266.269 331.65 273.864 345.865C277.478 352.552 279.805 359.87 280.722 367.43C281.588 374.687 281.29 382.038 279.837 389.2C277.13 402.53 270.961 414.896 261.959 425.034C257.906 429.619 253.315 433.689 248.286 437.155C243.589 440.27 238.59 442.896 233.366 444.991C228.585 446.835 223.656 448.263 218.634 449.26C206.894 451.442 194.845 451.313 183.153 448.88C181.703 448.588 180.253 448.295 178.977 447.915L175.352 446.936C173.149 446.19 171.249 445.62 169.756 445.064L166.363 443.763C165.994 443.6 165.61 443.473 165.217 443.383Z" fill="#263238"/>
<path d="M257.008 235.815C257.008 235.929 258.688 236.583 261.353 237.905C268.297 241.346 274.419 246.192 279.316 252.125C281.199 254.386 282.213 255.907 282.329 255.85C282.187 255.438 281.982 255.05 281.721 254.698C281.115 253.714 280.452 252.765 279.736 251.854C274.982 245.635 268.717 240.682 261.513 237.45C260.435 236.953 259.327 236.521 258.195 236.156C257.819 235.983 257.419 235.868 257.008 235.815Z" fill="#263238"/>
<path d="M269.483 255.753C269.483 255.753 269.259 255.24 268.485 254.682C267.361 253.893 265.976 253.584 264.629 253.821C263.63 254.031 262.706 254.513 261.956 255.215C261.206 255.917 260.658 256.813 260.371 257.806C260.047 259.045 260.121 260.357 260.581 261.551C261.042 262.745 261.865 263.76 262.932 264.448C264.036 265.191 265.375 265.487 266.684 265.278C267.878 265.104 268.996 264.579 269.9 263.769C270.683 263.096 271.257 262.208 271.553 261.211C271.849 260.215 271.854 259.153 271.567 258.153C271.227 256.824 270.443 255.656 269.349 254.848C268.97 254.53 268.511 254.326 268.024 254.259C268.024 254.259 268.485 254.515 269.155 255.089C270.105 255.922 270.764 257.045 271.031 258.289C271.244 259.181 271.208 260.115 270.927 260.987C270.645 261.859 270.13 262.634 269.438 263.225C268.625 263.976 267.594 264.44 266.5 264.549C265.405 264.657 264.305 264.405 263.364 263.829C262.44 263.226 261.722 262.349 261.309 261.317C260.896 260.284 260.808 259.148 261.056 258.063C261.251 257.316 261.614 256.624 262.117 256.043C262.62 255.463 263.249 255.008 263.955 254.715C264.661 254.423 265.423 254.3 266.184 254.357C266.944 254.414 267.681 254.649 268.336 255.044C269.096 255.391 269.423 255.799 269.483 255.753Z" fill="#263238"/>
<path d="M278.354 110.3L307.316 124.589C324.399 133.017 331.434 153.709 323.029 170.805L274.365 269.794C265.96 286.89 245.299 293.917 228.216 285.489L199.254 271.2C182.171 262.772 175.137 242.08 183.541 224.983L232.205 125.995C240.61 108.898 261.272 101.871 278.354 110.3Z" fill="#FA641E"/>
<path opacity="0.4" d="M278.354 110.3L307.316 124.589C324.399 133.017 331.434 153.709 323.029 170.806L274.365 269.794C265.96 286.89 245.299 293.917 228.216 285.489L199.254 271.2C182.171 262.772 175.137 242.08 183.541 224.983L232.205 125.995C240.61 108.898 261.272 101.871 278.354 110.3Z" fill="black"/>
<path d="M165.217 443.383C165.551 443.627 165.917 443.824 166.305 443.968L169.625 445.43C171.075 446.073 172.989 446.702 175.193 447.535L178.818 448.617C180.108 449.026 181.515 449.363 183.008 449.684C190.247 451.369 197.665 452.14 205.091 451.98C214.97 451.838 224.749 449.963 233.989 446.439C239.341 444.381 244.472 441.78 249.301 438.675C254.48 435.162 259.214 431.023 263.395 426.35C272.697 416.008 279.094 403.349 281.925 389.682C283.449 382.298 283.782 374.716 282.911 367.225C281.976 359.389 279.585 351.8 275.865 344.856C272.008 337.697 266.95 331.267 260.915 325.849C254.711 320.227 247.515 315.828 239.702 312.881C231.822 309.975 223.422 308.784 215.053 309.387C210.94 309.699 206.897 310.635 203.061 312.164C199.219 313.685 195.772 316.07 192.984 319.138C190.223 322.179 188.321 325.91 187.474 329.943C186.627 333.96 187.164 338.147 188.997 341.815C189.867 343.605 191.001 345.251 192.361 346.698C193.66 348.13 195.12 349.406 196.711 350.499C199.807 352.633 203.204 354.284 206.788 355.397C219.377 358.766 232.709 357.943 244.796 353.051C256.883 348.158 267.079 339.458 273.864 328.247C276.531 323.688 278.529 318.764 279.794 313.627C282.831 301.732 282.281 289.194 278.213 277.616C276.626 273.163 274.498 268.925 271.877 264.999C270.949 263.668 270.166 262.718 269.659 262.075C269.425 261.727 269.153 261.409 268.847 261.125C269.015 261.51 269.229 261.873 269.485 262.206C269.92 262.908 270.645 263.902 271.5 265.247C277.82 275.57 280.95 287.556 280.49 299.679C280.338 304.274 279.662 308.836 278.474 313.276C277.202 318.253 275.213 323.016 272.573 327.414C266.416 337.505 257.344 345.453 246.575 350.192C240.643 352.893 234.308 354.582 227.827 355.192C221.002 355.844 214.117 355.2 207.527 353.292C204.156 352.233 200.964 350.666 198.059 348.642C196.591 347.637 195.248 346.459 194.057 345.134C192.839 343.836 191.827 342.356 191.056 340.747C189.449 337.511 188.983 333.818 189.736 330.279C190.525 326.639 192.256 323.274 194.753 320.527C197.323 317.723 200.491 315.543 204.018 314.153C207.621 312.7 211.418 311.798 215.285 311.477C223.312 310.924 231.364 312.08 238.919 314.869C253.87 320.652 266.269 331.65 273.864 345.865C277.478 352.552 279.805 359.87 280.722 367.43C281.588 374.687 281.29 382.038 279.837 389.2C277.13 402.53 270.961 414.896 261.959 425.034C257.906 429.619 253.315 433.689 248.286 437.155C243.589 440.27 238.59 442.896 233.366 444.991C228.585 446.835 223.656 448.263 218.634 449.26C206.894 451.442 194.845 451.313 183.153 448.88C181.703 448.588 180.253 448.295 178.977 447.915L175.352 446.936C173.149 446.19 171.249 445.62 169.756 445.064L166.363 443.763C165.994 443.6 165.61 443.473 165.217 443.383Z" fill="#3F5058"/>
<path d="M257.008 235.815C257.008 235.929 258.688 236.583 261.353 237.905C268.297 241.346 274.419 246.192 279.316 252.125C281.199 254.386 282.213 255.907 282.329 255.85C282.187 255.438 281.982 255.05 281.721 254.698C281.115 253.714 280.452 252.765 279.736 251.854C274.982 245.635 268.717 240.682 261.513 237.45C260.435 236.953 259.327 236.521 258.195 236.156C257.819 235.983 257.419 235.868 257.008 235.815Z" fill="#263238"/>
<path d="M269.483 255.753C269.483 255.753 269.259 255.24 268.485 254.682C267.361 253.893 265.976 253.584 264.629 253.821C263.63 254.031 262.706 254.513 261.956 255.215C261.206 255.917 260.658 256.813 260.371 257.806C260.047 259.045 260.121 260.357 260.581 261.551C261.042 262.745 261.865 263.76 262.932 264.448C264.036 265.191 265.375 265.487 266.684 265.278C267.878 265.104 268.996 264.579 269.9 263.769C270.683 263.096 271.257 262.208 271.553 261.211C271.849 260.215 271.854 259.153 271.567 258.153C271.227 256.824 270.443 255.656 269.349 254.848C268.97 254.53 268.511 254.326 268.024 254.259C268.024 254.259 268.485 254.515 269.155 255.089C270.105 255.922 270.764 257.045 271.031 258.289C271.244 259.181 271.208 260.115 270.927 260.987C270.645 261.859 270.13 262.634 269.438 263.225C268.625 263.976 267.594 264.44 266.5 264.549C265.405 264.657 264.305 264.405 263.364 263.829C262.44 263.226 261.722 262.349 261.309 261.317C260.896 260.284 260.808 259.148 261.056 258.063C261.251 257.316 261.614 256.624 262.117 256.043C262.62 255.463 263.249 255.008 263.955 254.715C264.661 254.423 265.423 254.3 266.184 254.357C266.944 254.414 267.681 254.649 268.336 255.044C269.096 255.391 269.423 255.799 269.483 255.753Z" fill="#263238"/>
<path d="M254.565 116.172C257.359 110.58 259.82 105.558 259.82 105.558C259.82 105.558 249.398 99.1058 253.928 87.8064C258.459 76.5071 271.111 51.4997 271.111 51.4997L295.719 51.2661L309.76 78.6677L283.516 130.945C281.592 134.74 278.273 137.627 274.269 138.99C270.264 140.354 265.89 140.086 262.078 138.245C260.134 137.309 258.394 135.991 256.961 134.369C255.527 132.747 254.429 130.853 253.729 128.798C253.03 126.743 252.743 124.568 252.887 122.4C253.03 120.232 253.601 118.115 254.565 116.172Z" fill="#FFBE9D"/>
<path d="M263.49 71.1534C263.356 71.4356 263.309 71.7511 263.354 72.0601C263.399 72.3691 263.535 72.6577 263.744 72.8897C263.953 73.1217 264.227 73.2867 264.529 73.3638C264.832 73.4408 265.151 73.4266 265.446 73.3229C265.741 73.2192 265.998 73.0306 266.186 72.7809C266.373 72.5313 266.483 72.2316 266.501 71.9199C266.518 71.6081 266.443 71.2981 266.285 71.0289C266.126 70.7597 265.892 70.5434 265.61 70.4073C265.422 70.3162 265.218 70.2633 265.009 70.2515C264.801 70.2398 264.592 70.2694 264.395 70.3388C264.197 70.4082 264.016 70.5159 263.861 70.6557C263.705 70.7955 263.579 70.9647 263.49 71.1534Z" fill="#263238"/>
<path d="M263.342 68.8956C263.453 69.169 265.038 68.7741 266.717 69.4273C268.397 70.0804 269.268 71.4171 269.537 71.2956C269.807 71.1741 269.632 70.7943 269.268 70.1867C268.772 69.4004 268.021 68.792 267.129 68.4551C266.244 68.11 265.266 68.0462 264.34 68.2729C263.643 68.4703 263.295 68.7589 263.342 68.8956Z" fill="#263238"/>
<path d="M280.345 79.6476C280.185 80.023 280.176 80.4454 280.321 80.8269C280.465 81.2084 280.752 81.5193 281.12 81.6948C281.489 81.8703 281.911 81.8968 282.298 81.7688C282.686 81.6408 283.009 81.3681 283.2 81.0077C283.3 80.8192 283.361 80.6124 283.378 80.3997C283.396 80.1871 283.371 79.973 283.304 79.7704C283.237 79.5678 283.13 79.3808 282.988 79.2207C282.847 79.0607 282.675 78.9308 282.482 78.839C282.29 78.7472 282.08 78.6953 281.867 78.6864C281.653 78.6776 281.441 78.712 281.241 78.7875C281.041 78.8631 280.859 78.9782 280.705 79.126C280.551 79.2738 280.428 79.4513 280.345 79.6476Z" fill="#263238"/>
<path d="M279.171 77.3253C279.266 77.6144 280.854 77.2036 282.537 77.8731C284.22 78.5426 285.093 79.8665 285.363 79.7295C285.633 79.5926 285.458 79.2274 285.093 78.6339C284.597 77.842 283.844 77.2274 282.95 76.884C282.061 76.5412 281.081 76.4825 280.155 76.7166C279.457 76.8992 279.108 77.2036 279.171 77.3253Z" fill="#263238"/>
<path d="M268.114 87.1216C267.364 86.5627 266.545 86.0876 265.675 85.706C265.294 85.5079 264.913 85.2814 264.974 84.97C265.13 84.5369 265.422 84.1571 265.813 83.88L268.45 81.3179C270.31 79.4919 271.971 77.8074 273.145 76.5618C273.835 75.9353 274.44 75.2316 274.943 74.4668C274.152 74.9781 273.43 75.577 272.794 76.2503C271.514 77.4111 269.745 79.0814 267.947 80.865L265.34 83.4695C264.859 83.8259 264.525 84.326 264.395 84.885C264.384 85.0415 264.414 85.1981 264.484 85.3412C264.553 85.4843 264.658 85.6095 264.791 85.706C264.989 85.8582 265.21 85.9822 265.447 86.0741C266.286 86.5245 267.182 86.8764 268.114 87.1216Z" fill="#263238"/>
<path d="M262.756 91.0682C266.313 91.6995 269.573 93.3817 272.216 95.949C272.502 94.4619 272.161 93.4775 271.894 92.9077C271.3 91.6351 270.153 90.7918 268.941 90.2966C265.311 89.0983 262.756 91.0682 262.756 91.0682Z" fill="white"/>
<path d="M259.343 106.104C264.592 108.446 270.37 109.173 275.999 108.199C275.999 108.199 268.692 114.829 258.063 108.937L259.343 106.104Z" fill="#EB996E"/>
<path d="M320.863 96.2365L320.659 96.1201C321.42 94.0449 322.077 91.933 322.627 89.7922C327.569 64.1314 309.506 50.2972 305.526 48.4061C301.255 46.3695 294.913 40.478 278.658 46.5732C276.171 47.4808 273.833 48.7504 271.719 50.3408C267.909 52.1964 264.593 54.9227 262.038 58.298C259.779 61.3092 259.05 63.5495 259.123 63.6077C259.196 63.6659 260.347 61.6438 262.724 58.8944C264.105 57.2702 265.665 55.8063 267.374 54.5303C264.417 58.2793 262.71 62.857 262.49 67.6226L265.114 66.808L283.134 70.3138C283.921 65.3969 288.367 60.931 290.612 58.9381H290.758C286.122 76.8454 303.398 87.1592 303.398 87.1592L289.329 118.013C312.918 123.57 320.863 96.2365 320.863 96.2365Z" fill="#DB4646"/>
<path d="M297.1 104.88C297.732 105.848 298.681 106.568 299.785 106.92C300.89 107.272 302.082 107.233 303.161 106.811C304.222 106.346 305.158 105.64 305.894 104.75C306.631 103.859 307.146 102.808 307.4 101.682C307.818 100.339 307.71 98.8872 307.096 97.6201C306.488 96.8972 305.711 96.3339 304.833 95.9798C303.955 95.6257 303.004 95.4915 302.062 95.589L297.1 104.88Z" fill="#FFBE9D"/>
<path d="M300.271 104.439C300.271 104.271 300.935 104.439 301.78 104.286C302.347 104.188 302.879 103.941 303.322 103.569C303.764 103.197 304.102 102.714 304.301 102.168C304.5 101.622 304.553 101.033 304.455 100.459C304.357 99.8863 304.111 99.3493 303.742 98.9028C303.153 98.1707 302.565 97.8962 302.625 97.7437C302.685 97.5912 303.395 97.6065 304.285 98.3538C304.849 98.8683 305.248 99.5419 305.43 100.288C305.612 101.033 305.568 101.817 305.305 102.538C305.042 103.258 304.571 103.883 303.954 104.33C303.336 104.778 302.6 105.028 301.84 105.049C300.769 105.034 300.195 104.546 300.271 104.439Z" fill="#EB996E"/>
<path d="M234.275 64.4282C234.275 64.4282 234.348 64.1507 234.45 63.5957C234.553 63.0408 234.713 62.1353 234.903 61.1129C235.005 60.558 235.108 59.9592 235.239 59.2874C235.371 58.6156 235.619 57.8269 235.824 57.1259C236.271 55.3182 236.852 53.5462 237.562 51.8244C239.367 47.0455 241.889 42.569 245.042 38.5489C249.614 32.6342 255.387 27.7544 261.982 24.2303C268.576 20.7063 275.842 18.6178 283.302 18.1024C285.534 17.942 287.775 17.942 290.007 18.1024C291.146 18.1901 292.286 18.2193 293.44 18.3653L296.873 18.9495C297.457 19.0664 298.042 19.1248 298.611 19.2708L300.321 19.7528C301.475 20.0741 302.629 20.3516 303.783 20.7313C306.088 21.5604 308.337 22.5361 310.517 23.6522C312.753 24.7803 314.914 26.0485 316.989 27.4494C318.012 28.1796 318.99 29.0121 320.013 29.7861C321.051 30.5565 322.028 31.4061 322.935 32.3273C326.849 35.8948 330.146 40.0843 332.693 44.7266L333.701 46.4792L334.563 48.3193L335.411 50.1741C335.709 50.7881 335.963 51.4225 336.17 52.0727C336.623 53.3579 337.061 54.6577 337.514 55.9722C337.967 57.2866 338.157 58.6594 338.478 60.003C340.816 71.1283 339.457 82.7124 334.607 92.9948C333.979 94.2362 333.351 95.4629 332.737 96.7043C332.124 97.9457 331.276 99.0265 330.531 100.18C330.175 100.762 329.78 101.318 329.348 101.845L328.092 103.452L326.835 105.058L325.447 106.519C323.622 108.466 321.67 110.291 319.604 111.981C317.53 113.588 315.348 115.052 313.074 116.362C311.985 117.044 310.847 117.644 309.67 118.158C308.501 118.684 307.362 119.254 306.179 119.721C303.839 120.615 301.443 121.352 299.006 121.926C296.628 122.484 294.218 122.894 291.789 123.153C290.591 123.255 289.393 123.255 288.21 123.314H286.428C285.843 123.314 285.259 123.314 284.66 123.226L281.183 122.993C280.029 122.876 278.904 122.642 277.78 122.467C275.574 122.106 273.396 121.589 271.264 120.919C263.425 118.501 256.268 114.267 250.374 108.563C245.49 103.885 241.553 98.3123 238.774 92.1477C236.654 87.5167 235.24 82.5936 234.582 77.5431C234.297 75.7065 234.146 73.8518 234.129 71.9934C234.129 71.1755 234.041 70.4307 234.041 69.7443L234.143 67.9041C234.143 66.8087 234.246 65.9763 234.275 65.3775C234.304 64.7787 234.275 64.5158 234.275 64.5158C234.225 64.801 234.191 65.0886 234.173 65.3775C234.173 65.9617 234.056 66.8379 233.968 67.8895C233.968 68.4444 233.881 69.0725 233.822 69.7443C233.764 70.4161 233.822 71.2047 233.822 71.9934C233.817 73.865 233.948 75.7346 234.217 77.5869C234.816 82.6953 236.201 87.6806 238.322 92.3668C241.384 99.2747 245.882 105.452 251.516 110.488C257.151 115.524 263.793 119.304 271.001 121.576C273.164 122.249 275.37 122.776 277.604 123.153C278.744 123.329 279.869 123.577 281.037 123.694L284.558 123.942C285.157 123.942 285.756 124.044 286.355 124.03H288.152C289.35 124.03 290.562 124.03 291.789 123.883C294.248 123.626 296.688 123.212 299.094 122.642C301.578 122.083 304.019 121.346 306.398 120.437C307.596 119.955 308.75 119.385 309.933 118.859C311.128 118.333 312.285 117.723 313.395 117.034C315.7 115.728 317.911 114.264 320.013 112.653C322.115 110.951 324.097 109.107 325.944 107.132L327.405 105.672L328.676 104.05L329.947 102.429C330.389 101.896 330.789 101.329 331.145 100.735L333.395 97.2009L335.294 93.4475C340.219 83.0216 341.599 71.2714 339.223 59.9884C338.887 58.6156 338.566 57.2427 338.23 55.8845L336.871 51.9413C336.668 51.2781 336.409 50.6332 336.097 50.0135L335.235 48.1295L334.373 46.2601L333.336 44.4929C330.757 39.784 327.41 35.5389 323.432 31.933C322.52 31.0029 321.544 30.139 320.51 29.348C319.473 28.5739 318.479 27.7415 317.427 26.9966C313.279 24.1833 308.78 21.9247 304.046 20.2785C302.877 19.8842 301.694 19.6067 300.54 19.2854L298.801 18.8035C298.232 18.6574 297.633 18.599 297.048 18.4822L293.557 17.9126C292.403 17.7519 291.234 17.7373 290.095 17.6351C287.833 17.4817 285.563 17.4817 283.302 17.6351C275.764 18.1743 268.428 20.3117 261.781 23.9051C255.133 27.4985 249.328 32.4655 244.749 38.4758C241.599 42.5461 239.096 47.0782 237.328 51.9121C236.641 53.6514 236.08 55.4377 235.648 57.2573C235.444 58.046 235.225 58.7178 235.093 59.4334C234.962 60.1491 234.889 60.7186 234.801 61.2736C234.64 62.3543 234.509 63.1722 234.421 63.771C234.333 64.3698 234.275 64.4282 234.275 64.4282Z" fill="#263238"/>
<path d="M318.933 61.6268C317.909 61.0952 317.028 60.3365 316.363 59.4124C315.699 58.4883 315.268 57.4249 315.107 56.3089C314.946 55.1929 315.059 54.0558 315.437 52.9901C315.814 51.9245 316.446 50.9604 317.28 50.1763C320.335 47.3137 325.602 47.557 329.084 50.0332C332.381 52.7234 334.454 56.5642 334.854 60.7251C335.296 63.0868 335.093 65.5199 334.264 67.7815C333.842 68.9073 333.137 69.9126 332.211 70.7053C331.286 71.498 330.17 72.0528 328.966 72.3187C327.6 72.4521 326.222 72.2401 324.965 71.7033C323.708 71.1665 322.616 70.3233 321.795 69.2557C320.171 67.0943 318.952 64.6716 318.195 62.0992" fill="#E04242"/>
<path d="M257.008 41.7703C257.11 41.8901 259.036 39.959 262.578 37.4292C264.656 35.9604 266.831 34.6399 269.089 33.4773C271.859 32.0789 274.734 30.9076 277.687 29.9744C280.655 29.0828 283.687 28.4271 286.755 28.0135C289.266 27.6988 291.795 27.5687 294.324 27.6243C298.645 27.7141 301.291 28.223 301.32 28.0733C300.721 27.8567 300.1 27.711 299.468 27.6392C298.74 27.4879 298.004 27.378 297.264 27.3099C296.411 27.2201 295.426 27.0853 294.324 27.0704C291.765 26.943 289.199 27.0231 286.652 27.3099C283.537 27.6791 280.459 28.3201 277.452 29.226C274.453 30.1733 271.542 31.3854 268.751 32.8486C266.48 34.0543 264.303 35.4355 262.24 36.9801C261.343 37.6238 260.608 38.2974 259.947 38.8513C259.286 39.4052 258.727 39.9291 258.286 40.3482C257.807 40.7702 257.378 41.2474 257.008 41.7703Z" fill="#456457"/>
<path d="M252.872 49.1576C253.095 49.1576 253.527 47.9131 254.359 46.5112C255.192 45.1092 256.085 44.101 255.936 43.912C255.787 43.723 254.612 44.5263 253.705 46.0701C252.798 47.6138 252.664 49.1576 252.872 49.1576Z" fill="#456457"/>
<path d="M333.163 60.7578C333.049 62.5022 333.364 64.2481 334.08 65.8327C334.746 67.5259 335.194 69.3016 335.413 71.1147C335.499 72.1574 335.347 73.2064 334.969 74.1774C334.579 75.1943 333.839 76.0268 332.89 76.5151C331.911 76.9383 330.816 76.9803 329.809 76.6334C328.832 76.3206 327.922 75.8185 327.128 75.1539C325.785 73.9831 324.691 72.5372 323.917 70.9076C323.253 69.36 322.772 67.7356 322.484 66.0694C322.4 66.529 322.4 67.0006 322.484 67.4602C322.627 68.7288 322.961 69.9667 323.473 71.1295C324.217 72.8827 325.328 74.4441 326.727 75.7013C327.569 76.4412 328.543 77.0041 329.594 77.3584C330.775 77.7671 332.06 77.7145 333.206 77.2105C334.33 76.6564 335.203 75.6758 335.643 74.4733C336.057 73.3933 336.215 72.2262 336.101 71.0703C335.849 69.1945 335.338 67.3659 334.582 65.6403C334.11 64.4962 333.731 63.3134 333.449 62.1042C333.378 61.6503 333.283 61.2008 333.163 60.7578Z" fill="#263238"/>
<path d="M308.552 143.53C308.552 143.53 244.475 261.708 233.829 274.834L147.281 236.173L199.708 145.711C204.429 137.478 211.083 130.532 219.089 125.476C227.095 120.421 236.21 117.411 245.64 116.708H246.252C266.829 115.361 311.654 137.765 308.552 143.53Z" fill="#FA641E"/>
<path d="M173.658 190.438L173.949 190.597L174.837 191.018L178.304 192.57L191.327 198.272L211.122 206.846L223.081 211.996L226.242 213.36C226.835 213.598 227.474 213.701 228.111 213.661C228.749 213.621 229.37 213.439 229.928 213.128C231.016 212.506 231.96 211.66 232.695 210.647C233.444 209.651 234.079 208.576 234.589 207.441C238.376 201.275 242.251 194.572 245.994 187.536C248.908 181.994 251.675 176.51 254.21 171.142C255.462 168.473 256.667 165.833 257.822 163.221C259.017 160.657 259.794 157.919 260.124 155.111C260.376 152.371 259.643 149.631 258.055 147.379C256.53 145.351 254.685 143.582 252.593 142.142C243.617 135.636 233.181 131.413 222.193 129.839C219.906 129.52 218.114 129.375 216.905 129.317H215.449C215.289 129.301 215.128 129.301 214.968 129.317H215.434L216.818 129.433C218.027 129.534 219.804 129.723 222.076 130.086C228.493 131.111 234.735 133.026 240.619 135.773C244.677 137.667 248.536 139.956 252.141 142.606C254.167 144.02 255.956 145.744 257.444 147.713C258.919 149.83 259.595 152.4 259.352 154.966C259.017 157.695 258.25 160.354 257.079 162.844C255.943 165.441 254.72 168.081 253.452 170.751C250.932 176.09 248.194 181.559 245.251 187.101C241.508 194.123 237.662 200.811 233.89 206.962C233.009 209.141 231.485 211.003 229.52 212.301C229.053 212.569 228.529 212.726 227.991 212.759C227.452 212.792 226.914 212.699 226.417 212.489L223.242 211.14L211.283 206.048L191.429 197.633L178.319 192.135L174.794 190.684L173.891 190.336C173.76 190.452 173.658 190.423 173.658 190.438Z" fill="#263238"/>
<g opacity="0.7">
<path d="M236.961 158.832C236.961 159.666 237.209 160.482 237.673 161.176C238.136 161.869 238.795 162.41 239.567 162.729C240.338 163.048 241.186 163.132 242.005 162.969C242.824 162.806 243.576 162.405 244.166 161.815C244.756 161.225 245.158 160.473 245.321 159.655C245.484 158.837 245.4 157.989 245.081 157.218C244.761 156.447 244.22 155.788 243.526 155.325C242.832 154.861 242.016 154.614 241.182 154.614C240.062 154.614 238.989 155.058 238.197 155.849C237.406 156.64 236.961 157.713 236.961 158.832Z" fill="white"/>
</g>
<g opacity="0.7">
<path d="M229.576 175.705C229.576 176.539 229.823 177.355 230.287 178.049C230.751 178.742 231.41 179.283 232.181 179.602C232.952 179.921 233.801 180.005 234.619 179.842C235.438 179.68 236.19 179.278 236.78 178.688C237.37 178.098 237.772 177.346 237.935 176.528C238.098 175.71 238.015 174.862 237.695 174.091C237.376 173.32 236.835 172.661 236.141 172.198C235.447 171.734 234.631 171.487 233.796 171.487C232.677 171.487 231.603 171.931 230.812 172.722C230.02 173.513 229.576 174.586 229.576 175.705Z" fill="white"/>
</g>
<g opacity="0.7">
<path d="M223.246 196.796C220.915 196.796 219.025 194.908 219.025 192.578C219.025 190.248 220.915 188.36 223.246 188.36C225.576 188.36 227.466 190.248 227.466 192.578C227.466 194.908 225.576 196.796 223.246 196.796Z" fill="white"/>
</g>
<path d="M211.64 144.068C212.556 144.748 213.546 145.323 214.591 145.784C216.45 146.752 219.018 148.029 221.969 149.334C224.92 150.64 227.562 151.755 229.509 152.503C230.537 152.99 231.623 153.345 232.741 153.559C231.794 152.93 230.779 152.409 229.716 152.004L222.338 148.645L214.96 145.3C213.904 144.764 212.79 144.351 211.64 144.068Z" fill="#263238"/>
<path d="M201.089 161.996C202.15 162.608 203.275 163.114 204.445 163.506L212.658 166.819L220.856 170.201C221.956 170.739 223.11 171.17 224.301 171.487C223.298 170.792 222.217 170.206 221.077 169.74C219.031 168.747 216.176 167.462 212.967 166.148C209.759 164.834 206.8 163.757 204.637 163.016C203.495 162.56 202.306 162.219 201.089 161.996Z" fill="#263238"/>
<path d="M194.759 180.978C197.754 182.734 200.877 184.26 204.101 185.542C207.22 187.066 210.445 188.36 213.75 189.414C210.755 187.657 207.632 186.131 204.408 184.85C201.288 183.328 198.063 182.034 194.759 180.978Z" fill="#263238"/>
<path d="M289.517 130.359C289.825 129.155 289.771 127.881 289.362 126.71C288.953 125.539 288.208 124.527 287.228 123.811C283.715 120.814 256.016 113.621 256.016 113.621C256.016 113.621 248.415 112.453 246.457 116.978L289.517 130.359Z" fill="#FA641E"/>
<path opacity="0.2" d="M233.796 231.597L167.327 200.766L170.885 194.687L233.796 231.597Z" fill="black"/>
<g opacity="0.2">
<path d="M246.457 117.704C246.844 118.115 247.293 118.466 247.787 118.744C249.097 119.552 250.487 120.226 251.936 120.753C253.758 121.437 255.985 122.064 258.443 122.777C260.9 123.489 263.604 124.202 266.467 124.985C271.354 126.271 276.324 127.223 281.344 127.835C283.267 128.063 284.828 128.163 285.913 128.206C286.475 128.264 287.042 128.264 287.604 128.206C287.063 128.052 286.504 127.966 285.942 127.949C284.872 127.821 283.31 127.636 281.402 127.351C276.436 126.564 271.513 125.527 266.655 124.244L258.63 122.093C256.158 121.423 253.932 120.853 252.11 120.226C250.152 119.555 248.26 118.711 246.457 117.704Z" fill="black"/>
</g>
<g opacity="0.2">
<path d="M279.163 127.195C279.799 126.858 280.318 126.403 280.672 125.869C281.026 125.336 281.205 124.741 281.191 124.14C281.336 123.551 281.29 122.942 281.057 122.37C280.824 121.799 280.411 121.282 279.857 120.868C280.131 121.927 280.276 123.005 280.29 124.086C280.028 125.145 279.652 126.186 279.163 127.195Z" fill="black"/>
</g>
<g opacity="0.2">
<path d="M268.613 126.14C269.945 125.355 270.937 124.2 271.431 122.862C271.925 121.523 271.891 120.078 271.336 118.758C271.196 120.063 270.962 121.359 270.635 122.638C270.062 123.848 269.386 125.019 268.613 126.14Z" fill="black"/>
</g>
<g opacity="0.2">
<path d="M258.083 121.922C258.313 121.922 258.758 120.355 259.924 118.638C261.089 116.921 262.424 115.776 262.271 115.613C262.117 115.449 260.445 116.403 259.203 118.27C258.36 119.334 257.964 120.626 258.083 121.922Z" fill="black"/>
</g>
<path d="M163.638 241.088C163.638 241.088 28.5218 267.687 25.6817 282.676C22.8416 297.664 28.5946 430.12 28.5946 430.12L67.6279 430.909L71.8662 315.519L233.796 273.01L163.638 241.088Z" fill="#FA641E"/>
<path opacity="0.2" d="M163.638 241.088C163.638 241.088 28.5218 267.687 25.6817 282.676C22.8416 297.664 28.5946 430.12 28.5946 430.12L67.6279 430.909L71.8662 315.519L233.796 273.01L163.638 241.088Z" fill="black"/>
<path d="M27.3882 398.218L27.2285 425.411C27.2285 425.411 4.12592 420.686 6.01244 430.093C6.79607 433.997 66.2069 451.754 67.1212 450.917L68.1515 412.497L27.3882 398.218Z" fill="#FA641E"/>
<path opacity="0.4" d="M27.3882 398.218L27.2285 425.411C27.2285 425.411 4.12592 420.686 6.01244 430.093C6.79607 433.997 66.2069 451.754 67.1212 450.917L68.1515 412.497L27.3882 398.218Z" fill="black"/>
<path d="M6.95796 431.49C7.29357 430.627 7.81136 429.846 8.47651 429.198C9.14166 428.551 9.93876 428.052 10.8143 427.735C12.0633 427.286 13.3865 427.074 14.7145 427.112C22.4974 427.784 30.1718 429.376 37.575 431.853C44.9987 434.319 52.1378 437.561 58.8725 441.523C61.4434 443.045 63.4884 444.422 64.8908 445.278C65.5846 445.82 66.3223 446.305 67.0964 446.728C66.4612 446.137 65.7825 445.594 65.066 445.104C63.7076 444.103 61.7063 442.712 59.15 441.117C52.4452 437.021 45.2834 433.712 37.8087 431.258C30.345 428.74 22.5806 427.205 14.7145 426.691C13.3217 426.68 11.9409 426.946 10.6536 427.474C9.68131 427.877 8.81262 428.491 8.11191 429.272C7.66929 429.757 7.32689 430.323 7.10404 430.939C7.02616 431.114 6.97684 431.3 6.95796 431.49Z" fill="#263238"/>
<path d="M28.0592 405.6C28.5038 405.939 28.9866 406.223 29.4972 406.447C30.4607 406.958 31.8844 407.644 33.6531 408.477C37.1907 410.157 42.1375 412.333 47.6883 414.524C53.2391 416.715 58.3441 418.497 62.0686 419.68C63.9237 420.279 65.448 420.746 66.4978 421.038C67.0339 421.225 67.5884 421.352 68.1515 421.418C67.6552 421.136 67.1295 420.91 66.584 420.746L62.2699 419.169C58.5886 417.854 53.5411 415.999 47.9903 413.808C42.4395 411.617 37.4927 409.529 33.8976 407.966L29.5835 406.155C29.0993 405.908 28.5875 405.721 28.0592 405.6Z" fill="#263238"/>
<path d="M51.587 421.224C51.587 421.224 51.587 420.965 51.2288 420.705C50.9941 420.535 50.7263 420.425 50.4457 420.383C50.1651 420.341 49.8792 420.367 49.6096 420.46C49.216 420.581 48.863 420.82 48.5922 421.148C48.2972 421.54 48.1265 422.022 48.105 422.524C48.0955 423.082 48.2294 423.632 48.4922 424.114C48.755 424.597 49.1366 424.994 49.5958 425.262C50.0549 425.529 50.5741 425.658 51.0968 425.633C51.6196 425.608 52.1261 425.432 52.5614 425.122C52.9411 424.812 53.2134 424.377 53.3351 423.884C53.4176 423.461 53.3878 423.021 53.2491 422.615C53.1668 422.325 53.0251 422.058 52.8343 421.833C52.6435 421.609 52.4084 421.432 52.1458 421.316C51.7733 421.194 51.544 421.316 51.5583 421.316C51.5726 421.316 51.7589 421.408 52.0168 421.607C52.3925 421.878 52.6546 422.294 52.7476 422.768C52.8337 423.09 52.8233 423.432 52.718 423.747C52.6127 424.062 52.4176 424.335 52.1601 424.526C51.8298 424.755 51.4472 424.885 51.0531 424.901C50.6591 424.917 50.2683 424.818 49.9227 424.616C49.577 424.414 49.2893 424.115 49.0903 423.752C48.8913 423.389 48.7885 422.975 48.7928 422.554C48.7888 422.221 48.8818 421.896 49.0589 421.622C49.236 421.348 49.4886 421.14 49.7815 421.026C50.2005 420.85 50.6665 420.85 51.0855 421.026C51.3864 421.041 51.5297 421.255 51.587 421.224Z" fill="#263238"/>
<path d="M59.7105 449.892C59.7267 447.016 59.3698 444.16 58.6564 441.455C58.6402 444.33 58.9971 447.187 59.7105 449.892Z" fill="#263238"/>
<path d="M54.4348 447.782C54.4532 445.981 54.223 444.185 53.7507 442.446C53.5208 440.652 53.0412 438.899 52.3257 437.237C52.3153 439.043 52.5453 440.842 53.0097 442.588C53.2488 444.375 53.7281 446.122 54.4348 447.782Z" fill="#263238"/>
<path d="M48.1055 446.728C47.8917 442.786 47.1825 438.888 45.995 435.127C46.2088 439.069 46.918 442.967 48.1055 446.728Z" fill="#263238"/>
<path d="M40.7201 444.619C40.506 440.329 39.7975 436.081 38.6096 431.964C38.8237 436.254 39.5322 440.502 40.7201 444.619Z" fill="#263238"/>
<path d="M33.3346 442.509C33.1205 438.219 32.412 433.971 31.2241 429.854C31.4383 434.144 32.1467 438.392 33.3346 442.509Z" fill="#263238"/>
<path d="M25.9489 439.346C25.9593 437.362 25.7294 435.385 25.2648 433.463C25.0259 431.5 24.5468 429.578 23.8398 427.746C23.8212 429.725 24.0512 431.698 24.5238 433.614C24.7535 435.583 25.2328 437.511 25.9489 439.346Z" fill="#263238"/>
<path d="M18.5637 436.182C18.3538 432.925 17.6417 429.723 16.4535 426.691C16.4443 428.329 16.6815 429.959 17.1569 431.524C17.3848 433.142 17.8595 434.713 18.5637 436.182Z" fill="#263238"/>
<path d="M132.524 427.831C132.22 428.4 136.951 431.648 143.085 435.106C149.219 438.563 154.427 440.883 154.658 440.315C154.89 439.746 150.217 436.498 144.083 433.04C137.949 429.583 132.814 427.263 132.524 427.831Z" fill="#263238"/>
<path d="M64.9883 108.644V108.557C58.15 105.762 51.4678 102.604 44.9708 99.096C36.2295 93.8591 36.6374 93.0779 37.4387 92.1521C39.5512 89.7072 53.2459 100.832 51.687 96.709C50.1282 92.5861 33.3595 85.1358 35.6613 82.6186C38.6917 79.4071 52.8088 91.2986 54.0763 92.181C55.3438 93.0635 56.7133 91.313 55.5332 90.5463C53.8141 89.4468 36.1275 77.4251 39.0704 74.2425C40.7021 72.4776 43.6159 75.6892 43.6159 75.6892C43.6159 75.6892 59.3357 88.1304 60.676 86.5825C62.0163 85.0345 53.0565 77.3962 49.8368 75.0092C46.6171 72.6222 46.5005 70.2353 48.7004 69.7C50.1573 69.3239 60.2098 76.3112 63.2692 78.7127C66.3287 81.1141 74.8369 87.8555 73.3946 81.172C71.9523 74.4884 73.3946 68.8176 74.8515 67.5445C76.3083 66.2714 78.6248 67.8338 78.1586 69.9025C77.8783 72.1927 77.9224 74.5106 78.2897 76.7886C78.5082 78.6357 79.0454 80.4317 79.8777 82.0978C80.8392 84.0364 81.7425 85.6277 82.5438 86.9731C83.8681 89.103 84.2971 91.6642 83.7384 94.1051C82.6166 97.6783 69.5775 110.322 69.5775 110.322L64.9883 108.644Z" fill="#FA641E"/>
<g opacity="0.7">
<path d="M64.9883 108.644V108.557C58.15 105.762 51.4678 102.604 44.9708 99.096C36.2295 93.8591 36.6374 93.0779 37.4387 92.1521C39.5512 89.7072 53.2459 100.832 51.687 96.709C50.1282 92.5861 33.3595 85.1358 35.6613 82.6186C38.6917 79.4071 52.8088 91.2986 54.0763 92.181C55.3438 93.0635 56.7133 91.313 55.5332 90.5463C53.8141 89.4468 36.1275 77.4251 39.0704 74.2425C40.7021 72.4776 43.6159 75.6892 43.6159 75.6892C43.6159 75.6892 59.3357 88.1304 60.676 86.5825C62.0163 85.0345 53.0565 77.3962 49.8368 75.0092C46.6171 72.6222 46.5005 70.2353 48.7004 69.7C50.1573 69.3239 60.2098 76.3112 63.2692 78.7127C66.3287 81.1141 74.8369 87.8555 73.3946 81.172C71.9523 74.4884 73.3946 68.8176 74.8515 67.5445C76.3083 66.2714 78.6248 67.8338 78.1586 69.9025C77.8783 72.1927 77.9224 74.5106 78.2897 76.7886C78.5082 78.6357 79.0454 80.4317 79.8777 82.0978C80.8392 84.0364 81.7425 85.6277 82.5438 86.9731C83.8681 89.103 84.2971 91.6642 83.7384 94.1051C82.6166 97.6783 69.5775 110.322 69.5775 110.322L64.9883 108.644Z" fill="white"/>
</g>
<path d="M234.851 119.312C231.831 121.56 147.401 124.447 147.401 124.447L92.3203 93.4487L70.2618 114.496C70.2618 114.496 134.564 157.707 141.723 159.216C148.883 160.724 201.088 159.216 201.088 159.216L234.851 119.312Z" fill="#FA641E"/>
<path d="M91.419 94.3225L72.4505 114.444C71.8605 115.077 71.0648 115.477 70.2066 115.573C69.3484 115.668 68.4843 115.454 67.77 114.967L67.6396 114.88C67.2019 114.583 66.8341 114.194 66.5617 113.74C66.2893 113.286 66.1189 112.778 66.0623 112.251C66.0058 111.724 66.0644 111.191 66.2342 110.689C66.404 110.187 66.6809 109.729 67.0455 109.345L86.1588 89.3102C86.7153 88.7194 87.4538 88.3336 88.2556 88.215C89.0574 88.0964 89.8756 88.2519 90.5785 88.6564C91.0581 88.9283 91.4695 89.3063 91.7814 89.7615C92.0933 90.2168 92.2975 90.7374 92.3786 91.2837C92.4596 91.8301 92.4153 92.3877 92.249 92.9143C92.0827 93.4409 91.7988 93.9225 91.419 94.3225Z" fill="#FA641E"/>
<path opacity="0.5" d="M91.419 94.3225L72.4505 114.444C71.8605 115.077 71.0648 115.477 70.2066 115.573C69.3484 115.668 68.4843 115.454 67.77 114.967L67.6396 114.88C67.2019 114.583 66.8341 114.194 66.5617 113.74C66.2893 113.286 66.1189 112.778 66.0623 112.251C66.0058 111.724 66.0644 111.191 66.2342 110.689C66.404 110.187 66.6809 109.729 67.0455 109.345L86.1588 89.3102C86.7153 88.7194 87.4538 88.3336 88.2556 88.215C89.0574 88.0964 89.8756 88.2519 90.5785 88.6564C91.0581 88.9283 91.4695 89.3063 91.7814 89.7615C92.0933 90.2168 92.2975 90.7374 92.3786 91.2837C92.4596 91.8301 92.4153 92.3877 92.249 92.9143C92.0827 93.4409 91.7988 93.9225 91.419 94.3225Z" fill="white"/>
<path d="M142.012 158.832C142.485 158.642 142.927 158.383 143.324 158.063C144.4 157.231 145.394 156.298 146.295 155.277C149.321 151.9 151.353 147.741 152.162 143.267C152.972 138.793 152.528 134.18 150.88 129.946C150.394 128.673 149.791 127.449 149.077 126.29C148.843 125.845 148.541 125.438 148.183 125.086C148.054 125.086 149.279 126.928 150.375 130.135C151.852 134.301 152.215 138.784 151.428 143.135C150.641 147.487 148.731 151.554 145.891 154.929C143.671 157.497 141.883 158.716 142.012 158.832Z" fill="#263238"/>
<path d="M77.6471 108.213C77.8465 108.418 78.0671 108.602 78.3052 108.762L80.2647 110.206C81.9756 111.463 84.4762 113.255 87.5763 115.436C93.7912 119.77 102.492 125.693 112.246 131.948C122 138.203 130.993 143.678 137.603 147.521C140.878 149.456 143.554 150.988 145.412 152.013L147.561 153.184C147.804 153.337 148.064 153.463 148.336 153.559C148.126 153.36 147.89 153.19 147.634 153.053L145.558 151.768L137.881 147.073C131.388 143.115 122.453 137.596 112.699 131.341C102.945 125.086 94.1568 119.206 87.8834 115.017L80.4109 109.975L78.3783 108.632C78.1556 108.459 77.9094 108.318 77.6471 108.213Z" fill="#263238"/>
<path d="M148.336 153.483C148.336 153.686 159.449 153.483 173.137 152.874C186.826 152.266 197.924 151.729 197.924 151.527C197.924 151.324 186.811 151.527 173.108 152.121C159.406 152.715 148.322 153.295 148.336 153.483Z" fill="#263238"/>
<g opacity="0.2">
<path d="M186.318 159.771C189.692 150.47 194.472 141.73 200.495 133.849C206.108 126.361 220.168 120.471 229.576 120.889C216.141 126.894 198.401 144.909 191.96 159.887L186.318 159.771Z" fill="black"/>
</g>
<path d="M306.808 139.968C307.344 137.315 359.537 179.88 381.468 197.897C384.45 200.346 386.852 203.432 388.501 206.932C390.149 210.432 391.003 214.257 391 218.13C391 221.56 390.329 224.957 389.024 228.126C387.72 231.295 385.808 234.175 383.397 236.6C380.987 239.026 378.125 240.95 374.975 242.263C371.826 243.576 368.45 244.251 365.041 244.251H301.463V211.803H342.863L289.714 176.571L306.808 139.968Z" fill="#FA641E"/>
<path d="M292.624 241.126V241.024C285.354 242.153 278.03 242.878 270.682 243.197C260.537 243.197 260.465 242.287 260.667 241.082C261.204 237.852 278.595 240.363 275.16 237.632C271.725 234.9 253.537 237.044 254.233 233.696C255.146 229.291 273.305 232.301 274.87 232.448C276.435 232.595 276.667 230.304 275.262 230.26C273.233 230.26 251.957 228.938 252.812 224.636C253.291 222.257 257.436 223.52 257.436 223.52C257.436 223.52 277.262 226.178 277.595 224.137C277.928 222.095 266.349 220.098 262.392 219.731C258.436 219.364 257.073 217.323 258.682 215.708C259.769 214.606 271.914 215.473 275.812 215.943C279.711 216.412 290.392 217.896 285.711 212.829C281.03 207.763 279.32 202.08 279.914 200.216C280.09 199.799 280.39 199.449 280.773 199.215C281.157 198.981 281.603 198.875 282.048 198.913C282.494 198.95 282.917 199.129 283.257 199.423C283.597 199.717 283.837 200.113 283.943 200.553C284.898 202.673 286.137 204.649 287.624 206.427C288.761 207.918 290.144 209.2 291.711 210.216C293.537 211.405 295.131 212.33 296.508 213.079C298.731 214.248 300.416 216.25 301.204 218.659C302.102 222.36 297.508 240.113 297.508 240.113L292.624 241.126Z" fill="#FA641E"/>
<g opacity="0.7">
<path d="M292.624 241.126V241.024C285.354 242.153 278.03 242.878 270.682 243.197C260.537 243.197 260.465 242.287 260.667 241.082C261.204 237.852 278.595 240.363 275.16 237.632C271.725 234.9 253.537 237.044 254.233 233.696C255.146 229.291 273.305 232.301 274.87 232.448C276.435 232.595 276.667 230.304 275.262 230.26C273.233 230.26 251.957 228.938 252.812 224.636C253.291 222.257 257.436 223.52 257.436 223.52C257.436 223.52 277.262 226.178 277.595 224.137C277.928 222.095 266.349 220.098 262.392 219.731C258.436 219.364 257.073 217.323 258.682 215.708C259.769 214.606 271.914 215.473 275.812 215.943C279.711 216.412 290.392 217.896 285.711 212.829C281.03 207.763 279.32 202.08 279.914 200.216C280.09 199.799 280.39 199.449 280.773 199.215C281.157 198.981 281.603 198.875 282.048 198.913C282.494 198.95 282.917 199.129 283.257 199.423C283.597 199.717 283.837 200.113 283.943 200.553C284.898 202.673 286.137 204.649 287.624 206.427C288.761 207.918 290.144 209.2 291.711 210.216C293.537 211.405 295.131 212.33 296.508 213.079C298.731 214.248 300.416 216.25 301.204 218.659C302.102 222.36 297.508 240.113 297.508 240.113L292.624 241.126Z" fill="white"/>
</g>
<path d="M388.89 206.688C388.454 206.157 387.963 205.673 387.426 205.242C385.997 203.986 384.442 202.877 382.785 201.932C377.264 198.746 370.863 197.37 364.5 198C358.155 198.734 352.199 201.402 347.46 205.633C346.035 206.896 344.74 208.295 343.595 209.811C343.146 210.344 342.767 210.932 342.467 211.56C344.111 209.594 345.897 207.748 347.811 206.038C352.547 202.037 358.383 199.52 364.573 198.809C370.792 198.201 377.051 199.472 382.522 202.452C384.746 203.71 386.874 205.126 388.89 206.688Z" fill="#263238"/>
<path d="M297.101 167.271C296.985 167.431 308.669 176.001 323.259 186.563C337.85 197.126 349.722 205.405 349.852 205.23C349.982 205.056 338.283 196.501 323.693 185.938C309.103 175.375 297.231 167.097 297.101 167.271Z" fill="#263238"/>
<path d="M306.595 228.453C306.859 228.542 307.131 228.595 307.406 228.611L309.768 228.881C311.81 229.119 314.78 229.405 318.46 229.722C325.79 230.341 335.959 230.992 347.186 231.31C358.413 231.627 368.597 231.659 375.956 231.516C379.636 231.516 382.62 231.341 384.648 231.246L387.009 231.119C387.288 231.118 387.565 231.081 387.835 231.008C387.561 230.971 387.283 230.971 387.009 231.008H375.927C368.568 231.008 358.399 231.008 347.172 230.564C335.945 230.119 325.804 229.643 318.46 229.167L309.768 228.596L307.392 228.469C307.128 228.428 306.86 228.423 306.595 228.453Z" fill="#263238"/>
<g opacity="0.2">
<path d="M337.192 207.861C337.395 202.671 341.548 198.169 346.354 196.473C351.16 194.777 357.722 196.312 362.514 198.227C354.876 200.464 347.051 204.791 342.782 211.56L337.192 207.861Z" fill="black"/>
</g>
<path d="M305.538 213.197L304.803 240.722C304.779 241.58 304.441 242.402 303.847 243.042C303.253 243.682 302.443 244.099 301.56 244.218H301.395C300.851 244.29 300.297 244.246 299.772 244.091C299.247 243.936 298.763 243.672 298.354 243.319C297.946 242.966 297.622 242.531 297.406 242.045C297.189 241.559 297.085 241.033 297.101 240.505L298.002 212.952C298.032 212.14 298.344 211.361 298.888 210.74C299.433 210.119 300.178 209.692 301.005 209.527C301.563 209.415 302.141 209.427 302.694 209.561C303.247 209.696 303.761 209.949 304.198 210.302C304.634 210.656 304.982 211.1 305.214 211.601C305.446 212.103 305.557 212.648 305.538 213.197Z" fill="#FA641E"/>
<path opacity="0.5" d="M305.538 213.197L304.803 240.722C304.779 241.58 304.441 242.402 303.847 243.042C303.253 243.682 302.443 244.099 301.56 244.218H301.395C300.851 244.29 300.297 244.246 299.772 244.091C299.247 243.936 298.763 243.672 298.354 243.319C297.946 242.966 297.622 242.531 297.406 242.045C297.189 241.559 297.085 241.033 297.101 240.505L298.002 212.952C298.032 212.14 298.344 211.361 298.888 210.74C299.433 210.119 300.178 209.692 301.005 209.527C301.563 209.415 302.141 209.427 302.694 209.561C303.247 209.696 303.761 209.949 304.198 210.302C304.634 210.656 304.982 211.1 305.214 211.601C305.446 212.103 305.557 212.648 305.538 213.197Z" fill="white"/>
<path d="M293.347 180.978C290.672 179.074 288.309 176.764 286.342 174.131C284.295 171.23 282.801 167.973 281.936 164.524C281.423 162.495 281.113 160.418 281.011 158.327C280.924 156.082 281.091 153.834 281.51 151.627C282.362 147.112 284.447 142.951 287.854 140.796C290.893 138.979 294.418 138.154 297.943 138.435C300.332 138.6 302.704 138.955 305.036 139.498C305.896 139.71 306.77 139.863 307.65 139.955C307.65 139.955 307.445 139.852 307.019 139.704C306.593 139.557 305.947 139.38 305.124 139.158C302.794 138.484 300.404 138.039 297.987 137.83C294.331 137.455 290.651 138.267 287.487 140.147C285.656 141.348 284.144 142.979 283.081 144.898C281.951 146.923 281.162 149.122 280.746 151.406C280.314 153.676 280.147 155.988 280.247 158.297C280.362 160.445 280.691 162.576 281.231 164.657C282.171 168.173 283.766 171.477 285.93 174.396C287.388 176.359 289.13 178.09 291.1 179.532C291.632 179.925 292.191 180.28 292.774 180.594C292.947 180.747 293.14 180.876 293.347 180.978Z" fill="#263238"/>
<path d="M52.0531 230.408L102.593 286.435L130.834 266.483L84.3471 210.908L207.044 275.855C212.747 278.805 219.349 279.499 225.539 277.797C231.73 276.096 237.054 272.125 240.456 266.673C242.366 263.613 243.609 260.185 244.104 256.611C244.599 253.038 244.335 249.4 243.33 245.935C242.325 242.471 240.601 239.258 238.271 236.507C235.94 233.756 233.057 231.529 229.808 229.971L97.1891 166.407C87.848 161.923 77.2455 160.817 67.1825 163.276C57.1195 165.735 48.2165 171.608 41.9858 179.897C29.4634 196.574 36.0732 214.124 52.0531 230.408Z" fill="#FA641E"/>
<path d="M71.3201 195.653C71.3201 195.653 71.32 195.581 71.4659 195.407L71.8452 194.638C72.2912 193.64 72.8491 192.696 73.5081 191.823C74.5202 190.385 75.893 189.234 77.4902 188.486C79.6642 187.549 82.1081 187.435 84.3605 188.167L153.501 224.161L213.175 254.917L231.292 264.173L236.266 266.64L237.564 267.263L238.016 267.452C238.016 267.452 237.885 267.35 237.608 267.191L236.339 266.494L231.467 263.898L213.452 254.439L153.88 223.465L84.5939 187.776C82.2368 187.026 79.6838 187.176 77.4318 188.196C75.8015 188.986 74.412 190.192 73.4059 191.693C72.7652 192.598 72.2271 193.571 71.8014 194.594L71.4805 195.378C71.3346 195.566 71.3055 195.653 71.3201 195.653Z" fill="#263238"/>
<path d="M66.0458 188.36C65.8856 188.488 70.2401 194.076 75.7743 200.708C81.3084 207.339 85.9688 212.741 86.0853 212.613C86.2018 212.484 81.891 206.896 76.3568 200.25C73.1245 196.12 69.6832 192.152 66.0458 188.36Z" fill="#263238"/>
<path d="M76.592 258.253L103.418 289.248C103.418 289.248 88.1074 307.409 90.6567 309.548C93.206 311.687 135.675 273.634 135.675 273.634L107.865 237.924L76.592 258.253Z" fill="#FA641E"/>
<path opacity="0.4" d="M76.592 258.253L103.418 289.248C103.418 289.248 88.1074 307.409 90.6567 309.548C93.206 311.687 135.675 273.634 135.675 273.634L107.865 237.924L76.592 258.253Z" fill="black"/>
<path d="M82.9239 267.445C83.0267 267.64 90.6626 263.544 99.9872 258.297C109.312 253.05 116.786 248.655 116.683 248.475C116.581 248.296 108.945 252.377 99.6201 257.624C90.2955 262.871 82.8064 267.266 82.9239 267.445Z" fill="#263238"/>
<path d="M118.728 267.61C118.728 267.61 118.876 267.877 119.084 268.353C119.354 269.012 119.421 269.736 119.277 270.433C119.193 270.937 118.997 271.417 118.704 271.836C118.411 272.255 118.029 272.603 117.584 272.855C117.021 273.073 116.408 273.128 115.815 273.014C115.222 272.901 114.673 272.623 114.23 272.213C113.788 271.802 113.469 271.276 113.311 270.693C113.152 270.111 113.161 269.496 113.335 268.917C113.553 268.458 113.869 268.051 114.262 267.728C114.655 267.404 115.115 267.171 115.608 267.045C116.292 266.846 117.018 266.846 117.702 267.045C118.193 267.209 118.43 267.402 118.475 267.343C118.52 267.283 118.326 267.045 117.821 266.778C117.102 266.41 116.277 266.305 115.489 266.481C114.888 266.593 114.322 266.843 113.834 267.212C113.347 267.58 112.952 268.058 112.681 268.605C112.431 269.322 112.397 270.095 112.58 270.83C112.764 271.566 113.159 272.232 113.716 272.746C114.273 273.261 114.968 273.601 115.716 273.726C116.463 273.851 117.231 273.755 117.925 273.449C118.45 273.135 118.893 272.703 119.221 272.187C119.548 271.671 119.751 271.086 119.812 270.478C119.93 269.675 119.767 268.856 119.352 268.16C119.04 267.729 118.742 267.58 118.728 267.61Z" fill="#263238"/>
<path opacity="0.2" d="M119.85 230.542L85.0911 212.218L67.0966 190.469L119.85 230.542Z" fill="black"/>
<path d="M36.3896 73.596C16.2921 73.1261 0.381077 56.4608 0.851267 36.3728C1.32146 16.2848 17.9948 0.381172 38.0923 0.850986C58.1897 1.3208 74.1008 17.9862 73.6306 38.0741C73.1604 58.1621 56.487 74.0658 36.3896 73.596Z" fill="#658291"/>
<path d="M24.8923 23.177C24.8639 22.0297 24.4958 20.9167 23.8343 19.9787C23.1729 19.0406 22.2479 18.3198 21.1764 17.9074C20.105 17.4951 18.9353 17.4096 17.8152 17.662C16.6952 17.9143 15.6752 18.4931 14.8844 19.325C14.0936 20.157 13.5674 21.2047 13.3726 22.3357C13.1777 23.4666 13.3229 24.6299 13.7897 25.6784C14.2565 26.7268 15.024 27.6133 15.995 28.2256C16.9661 28.8379 18.097 29.1486 19.2447 29.1182C20.7814 29.0775 22.2392 28.4291 23.298 27.3152C24.3568 26.2013 24.9302 24.713 24.8923 23.177Z" fill="#263238"/>
<path d="M13.2873 36.9518C13.2718 36.2214 13.0399 35.512 12.6208 34.9134C12.2017 34.3149 11.6144 33.8541 10.9331 33.5895C10.2518 33.3249 9.50732 33.2683 8.79387 33.4269C8.08042 33.5855 7.4301 33.9522 6.92528 34.4805C6.42047 35.0089 6.08386 35.675 5.9581 36.3947C5.83233 37.1144 5.92309 37.8552 6.21883 38.5233C6.51456 39.1914 7.00198 39.7567 7.61939 40.1477C8.23679 40.5387 8.9564 40.7378 9.68706 40.7197C10.1713 40.7097 10.6488 40.6042 11.0921 40.4092C11.5355 40.2143 11.9359 39.9337 12.2705 39.5836C12.605 39.2334 12.867 38.8207 13.0415 38.3691C13.216 37.9174 13.2995 37.4358 13.2873 36.9518Z" fill="#263238"/>
<path d="M17.5086 48.1021C17.2189 48.1298 16.9508 48.2528 16.756 48.4475C16.5612 48.6422 16.4534 48.8948 16.4534 49.1566C16.4534 49.4184 16.5612 49.671 16.756 49.8657C16.9508 50.0604 17.2189 50.1835 17.5086 50.2112C17.7983 50.1835 18.0664 50.0604 18.2612 49.8657C18.4561 49.671 18.5638 49.4184 18.5638 49.1566C18.5638 48.8948 18.4561 48.6422 18.2612 48.4475C18.0664 48.2528 17.7983 48.1298 17.5086 48.1021Z" fill="#263238"/>
</svg>
