<svg width="1366" height="768" viewBox="0 0 1366 768" fill="none" xmlns="http://www.w3.org/2000/svg">
<path d="M724.161 272.719L723.36 274.176C722.457 275.823 721.103 277.177 719.456 278.08L717.999 278.881L719.456 279.697C721.103 280.6 722.457 281.955 723.36 283.601L724.161 285.058L724.963 283.601C725.866 281.955 727.22 280.6 728.867 279.697L730.324 278.881L728.867 278.08C727.22 277.177 725.866 275.823 724.963 274.176L724.161 272.719Z" fill="#BABABA"/>
<path d="M1318.18 394L1317.36 395.457C1316.46 397.106 1315.11 398.462 1313.46 399.361L1312 400.162L1313.46 400.978C1315.11 401.877 1316.46 403.233 1317.36 404.882L1318.18 406.339L1318.98 404.882C1319.88 403.236 1321.23 401.881 1322.88 400.978L1324.34 400.162L1322.88 399.361C1321.23 398.458 1319.88 397.103 1318.98 395.457L1318.18 394Z" fill="#BABABA"/>
<path d="M1185.55 487.2L1185.14 487.928C1184.69 488.751 1184.01 489.428 1183.19 489.88L1182.45 490.288L1183.19 490.681C1184.01 491.138 1184.69 491.82 1185.14 492.648L1185.55 493.376L1185.94 492.648C1186.39 491.82 1187.07 491.138 1187.89 490.681L1188.64 490.288L1187.89 489.88C1187.07 489.428 1186.39 488.751 1185.94 487.928L1185.55 487.2Z" fill="#BABABA"/>
<path d="M666.088 490L665.68 490.743C665.228 491.566 664.551 492.243 663.728 492.695L662.999 493.088L663.728 493.496C664.554 493.943 665.233 494.622 665.68 495.448L666.088 496.177L666.481 495.448C666.933 494.625 667.61 493.948 668.433 493.496L669.176 493.088L668.433 492.695C667.613 492.239 666.937 491.563 666.481 490.743L666.088 490Z" fill="#BABABA"/>
<path d="M904.088 168L903.694 168.728C903.243 169.551 902.565 170.229 901.742 170.68L900.999 171.088L901.742 171.482C902.562 171.937 903.239 172.614 903.694 173.434L904.088 174.177L904.496 173.434C904.959 172.61 905.646 171.933 906.477 171.482L907.22 171.088L906.477 170.753C905.654 170.301 904.977 169.624 904.525 168.801L904.088 168Z" fill="#BABABA"/>
<path d="M1230.09 297L1229.69 297.728C1229.24 298.556 1228.57 299.238 1227.74 299.695L1227 300.088L1227.74 300.496C1228.57 300.948 1229.24 301.625 1229.69 302.448L1230.09 303.177L1230.5 302.448C1230.94 301.622 1231.62 300.943 1232.45 300.496L1233.18 300.088L1232.45 299.695C1231.62 299.242 1230.94 298.559 1230.5 297.728L1230.09 297Z" fill="#BABABA"/>
<path d="M1036.74 100L1035.28 102.535C1033.72 105.382 1031.38 107.722 1028.53 109.28L1026 110.736L1028.53 112.193C1031.38 113.75 1033.72 116.091 1035.28 118.938L1036.74 121.473L1038.19 118.938C1039.69 116.055 1041.99 113.664 1044.81 112.047L1047.34 110.591L1044.81 109.134C1041.96 107.577 1039.62 105.236 1038.06 102.389L1036.74 100Z" fill="#BABABA"/>
<path d="M1284.92 36L1285.17 36.454C1285.45 36.9697 1285.87 37.3949 1286.38 37.6798L1286.84 37.925L1286.38 38.1792C1285.87 38.4609 1285.45 38.8829 1285.17 39.3959L1284.92 39.8499L1284.67 39.3959C1284.39 38.8808 1283.97 38.458 1283.45 38.1792L1283 37.925L1283.45 37.6798C1283.97 37.3974 1284.39 36.9716 1284.67 36.454L1284.92 36Z" fill="#BABABA"/>
<path d="M73.9221 345L74.1669 345.454C74.4476 345.97 74.869 346.395 75.3819 346.68L75.8443 346.925L75.3819 347.179C74.8696 347.461 74.4482 347.883 74.1669 348.396L73.9221 348.85L73.6683 348.396C73.3899 347.881 72.9677 347.458 72.4533 347.179L72 346.925L72.4533 346.68C72.9681 346.397 73.3901 345.972 73.6683 345.454L73.9221 345Z" fill="#BABABA"/>
<path d="M242.922 100L243.167 100.454C243.448 100.97 243.869 101.395 244.382 101.68L244.844 101.925L244.382 102.179C243.87 102.461 243.448 102.883 243.167 103.396L242.922 103.85L242.668 103.396C242.39 102.881 241.968 102.458 241.453 102.179L241 101.925L241.453 101.68C241.968 101.397 242.39 100.972 242.668 100.454L242.922 100Z" fill="#BABABA"/>
<path d="M614.999 6.26685L615.906 7.84676C616.875 9.6212 618.332 11.0802 620.104 12.0508L621.682 12.9588L620.104 13.8668C618.332 14.8374 616.875 16.2964 615.906 18.0708L614.999 19.6508L614.093 18.0708C613.159 16.2741 611.731 14.7835 609.977 13.776L608.399 12.868L609.977 11.96C611.748 10.9894 613.205 9.5304 614.174 7.75597L614.999 6.26685Z" fill="#BABABA"/>
<path d="M399.468 82.9729L399.967 83.8809C400.529 84.9072 401.372 85.7514 402.397 86.3143L403.303 86.8137L402.397 87.3222C401.372 87.8851 400.529 88.7294 399.967 89.7557L399.468 90.6637L398.97 89.7557C398.407 88.7294 397.565 87.8851 396.54 87.3222L395.633 86.8137L396.54 86.3143C397.565 85.7514 398.407 84.9072 398.97 83.8809L399.468 82.9729Z" fill="#BABABA"/>
<path d="M28.8352 39L29.3338 39.908C29.8959 40.9343 30.7389 41.7785 31.7637 42.3414L32.6704 42.8408L31.7637 43.3493C30.7389 43.9122 29.8959 44.7565 29.3338 45.7828L28.8352 46.6908L28.3365 45.7828C27.7744 44.7565 26.9314 43.9122 25.9067 43.3493L25 42.8408L25.9067 42.3414C26.9314 41.7785 27.7744 40.9343 28.3365 39.908L28.8352 39Z" fill="#BABABA"/>
<path d="M1362.35 84.2397L1362.85 85.1477C1363.41 86.174 1364.25 87.0183 1365.28 87.5812L1366.18 88.0806L1365.28 88.5891C1364.25 89.152 1363.41 89.9962 1362.85 91.0225L1362.35 91.9305L1361.85 91.0225C1361.29 89.9962 1360.44 89.152 1359.42 88.5891L1358.51 88.0806L1359.42 87.5812C1360.44 87.0183 1361.29 86.174 1361.85 85.1477L1362.35 84.2397Z" fill="#BABABA"/>
<path d="M1362.35 591.24L1362.85 592.148C1363.41 593.174 1364.25 594.018 1365.28 594.581L1366.18 595.081L1365.28 595.589C1364.25 596.152 1363.41 596.996 1362.85 598.023L1362.35 598.93L1361.85 598.023C1361.29 596.996 1360.44 596.152 1359.42 595.589L1358.51 595.081L1359.42 594.581C1360.44 594.018 1361.29 593.174 1361.85 592.148L1362.35 591.24Z" fill="#BABABA"/>
<path d="M733.835 121L734.334 121.908C734.896 122.934 735.739 123.779 736.764 124.341L737.67 124.841L736.764 125.349C735.739 125.912 734.896 126.756 734.334 127.783L733.835 128.691L733.337 127.783C732.774 126.756 731.931 125.912 730.907 125.349L730 124.841L730.907 124.341C731.931 123.779 732.774 122.934 733.337 121.908L733.835 121Z" fill="#BABABA"/>
<path d="M733.835 628L734.334 628.908C734.896 629.934 735.739 630.779 736.764 631.341L737.67 631.841L736.764 632.349C735.739 632.912 734.896 633.756 734.334 634.783L733.835 635.691L733.337 634.783C732.774 633.756 731.931 632.912 730.907 632.349L730 631.841L730.907 631.341C731.931 630.779 732.774 629.934 733.337 628.908L733.835 628Z" fill="#BABABA"/>
<path d="M305.835 190L306.334 190.908C306.896 191.934 307.739 192.779 308.764 193.341L309.67 193.841L308.764 194.349C307.739 194.912 306.896 195.756 306.334 196.783L305.835 197.691L305.337 196.783C304.774 195.756 303.931 194.912 302.907 194.349L302 193.841L302.907 193.341C303.931 192.779 304.774 191.934 305.337 190.908L305.835 190Z" fill="#BABABA"/>
<path d="M324.835 586L325.334 586.908C325.896 587.934 326.739 588.779 327.764 589.341L328.67 589.841L327.764 590.349C326.739 590.912 325.896 591.756 325.334 592.783L324.835 593.691L324.337 592.783C323.774 591.756 322.931 590.912 321.907 590.349L321 589.841L321.907 589.341C322.931 588.779 323.774 587.934 324.337 586.908L324.835 586Z" fill="#BABABA"/>
<path d="M910.835 20L911.334 20.908C911.896 21.9343 912.739 22.7785 913.764 23.3414L914.67 23.8408L913.764 24.3493C912.739 24.9122 911.896 25.7565 911.334 26.7828L910.835 27.6908L910.337 26.7828C909.774 25.7565 908.931 24.9122 907.907 24.3493L907 23.8408L907.907 23.3414C908.931 22.7785 909.774 21.9343 910.337 20.908L910.835 20Z" fill="#BABABA"/>
<path d="M910.835 527L911.334 527.908C911.896 528.934 912.739 529.779 913.764 530.341L914.67 530.841L913.764 531.349C912.739 531.912 911.896 532.756 911.334 533.783L910.835 534.691L910.337 533.783C909.774 532.756 908.931 531.912 907.907 531.349L907 530.841L907.907 530.341C908.931 529.779 909.774 528.934 910.337 527.908L910.835 527Z" fill="#BABABA"/>
<path d="M3.83521 218.801L4.34294 219.709C4.90257 220.737 5.74617 221.582 6.7728 222.142L7.67947 222.642L6.7728 223.15C5.74617 223.711 4.90257 224.555 4.34294 225.584L3.83521 226.492L3.33654 225.584C2.77445 224.557 1.93145 223.713 0.906667 223.15L0 222.642L0.906667 222.142C1.93145 221.579 2.77445 220.735 3.33654 219.709L3.83521 218.801Z" fill="#BABABA"/>
<path d="M3.83521 725.801L4.34294 726.709C4.90257 727.737 5.74617 728.582 6.7728 729.142L7.67947 729.642L6.7728 730.15C5.74617 730.711 4.90257 731.555 4.34294 732.584L3.83521 733.492L3.33654 732.584C2.77445 731.557 1.93145 730.713 0.906667 730.15L0 729.642L0.906667 729.142C1.93145 728.579 2.77445 727.735 3.33654 726.709L3.83521 725.801Z" fill="#BABABA"/>
<path d="M1218.71 151.267L1219.22 152.175C1219.78 153.203 1220.62 154.048 1221.65 154.608L1222.56 155.108L1221.65 155.616C1220.62 156.177 1219.78 157.021 1219.22 158.05L1218.71 158.958L1218.21 158.05C1217.65 157.023 1216.81 156.179 1215.79 155.616L1214.88 155.108L1215.79 154.608C1216.81 154.045 1217.65 153.201 1218.21 152.175L1218.71 151.267Z" fill="#BABABA"/>
<path d="M1218.71 658.267L1219.22 659.175C1219.78 660.203 1220.62 661.048 1221.65 661.608L1222.56 662.108L1221.65 662.616C1220.62 663.177 1219.78 664.021 1219.22 665.05L1218.71 665.958L1218.21 665.05C1217.65 664.023 1216.81 663.179 1215.79 662.616L1214.88 662.108L1215.79 661.608C1216.81 661.045 1217.65 660.201 1218.21 659.175L1218.71 658.267Z" fill="#BABABA"/>
<path d="M20.8352 468L21.3429 468.908C21.9026 469.936 22.7462 470.781 23.7728 471.341L24.6795 471.841L23.7728 472.349C22.7462 472.91 21.9026 473.755 21.3429 474.783L20.8352 475.691L20.3365 474.783C19.7745 473.757 18.9314 472.912 17.9067 472.349L17 471.841L17.9067 471.341C18.9314 470.779 19.7745 469.934 20.3365 468.908L20.8352 468Z" fill="#BABABA"/>
<path d="M20.8352 975L21.3429 975.908C21.9026 976.936 22.7462 977.781 23.7728 978.341L24.6795 978.841L23.7728 979.349C22.7462 979.91 21.9026 980.755 21.3429 981.783L20.8352 982.691L20.3365 981.783C19.7745 980.756 18.9314 979.912 17.9067 979.349L17 978.841L17.9067 978.341C18.9314 977.779 19.7745 976.934 20.3365 975.908L20.8352 975Z" fill="#BABABA"/>
<path d="M405.922 241L406.176 241.463C406.457 241.976 406.879 242.398 407.391 242.68L407.844 242.925L407.391 243.179C406.877 243.458 406.454 243.881 406.176 244.396L405.922 244.85L405.677 244.396C405.396 243.883 404.975 243.461 404.462 243.179L404 242.925L404.462 242.68C404.973 242.396 405.394 241.974 405.677 241.463L405.922 241Z" fill="#BABABA"/>
<path d="M405.922 748L406.176 748.463C406.457 748.976 406.879 749.398 407.391 749.68L407.844 749.925L407.391 750.179C406.877 750.458 406.454 750.881 406.176 751.396L405.922 751.85L405.677 751.396C405.396 750.883 404.975 750.461 404.462 750.179L404 749.925L404.462 749.68C404.973 749.396 405.394 748.974 405.677 748.463L405.922 748Z" fill="#BABABA"/>
<path d="M1303.8 247.267L1304.05 247.73C1304.34 248.243 1304.76 248.665 1305.27 248.946L1305.72 249.192L1305.27 249.446C1304.75 249.725 1304.33 250.147 1304.05 250.663L1303.8 251.117L1303.56 250.663C1303.27 250.15 1302.85 249.727 1302.34 249.446L1301.88 249.192L1302.34 248.946C1302.85 248.662 1303.27 248.241 1303.56 247.73L1303.8 247.267Z" fill="#BABABA"/>
<path d="M1303.8 754.267L1304.05 754.73C1304.34 755.243 1304.76 755.665 1305.27 755.946L1305.72 756.192L1305.27 756.446C1304.75 756.725 1304.33 757.147 1304.05 757.663L1303.8 758.117L1303.56 757.663C1303.27 757.15 1302.85 756.727 1302.34 756.446L1301.88 756.192L1302.34 755.946C1302.85 755.662 1303.27 755.241 1303.56 754.73L1303.8 754.267Z" fill="#BABABA"/>
<path d="M203.048 0L203.955 1.57992C204.924 3.35435 206.381 4.81333 208.153 5.78396L209.73 6.69196L208.153 7.59996C206.381 8.57058 204.924 10.0296 203.955 11.804L203.048 13.3839L202.141 11.804C201.208 10.0073 199.779 8.51663 198.025 7.50916L196.448 6.60116L198.025 5.69316C199.797 4.72253 201.254 3.26356 202.223 1.48912L203.048 0Z" fill="#BABABA"/>
<path d="M150.601 434L151.507 435.58C152.476 437.354 153.933 438.813 155.705 439.784L157.283 440.692L155.705 441.6C153.933 442.571 152.476 444.03 151.507 445.804L150.601 447.384L149.694 445.804C148.761 444.007 147.332 442.517 145.578 441.509L144 440.601L145.578 439.693C147.349 438.723 148.806 437.264 149.775 435.489L150.601 434Z" fill="#BABABA"/>
<path d="M1165.93 1.26685L1166.83 2.84676C1167.8 4.6212 1169.26 6.08018 1171.03 7.0508L1172.61 7.9588L1171.03 8.8668C1169.26 9.83742 1167.8 11.2964 1166.83 13.0708L1165.93 14.6508L1165.02 13.0708C1164.09 11.2741 1162.66 9.78347 1160.9 8.776L1159.33 7.868L1160.9 6.96C1162.68 5.98938 1164.13 4.5304 1165.1 2.75597L1165.93 1.26685Z" fill="#BABABA"/>
<path d="M1089.6 615L1090.51 616.58C1091.48 618.354 1092.93 619.813 1094.71 620.784L1096.28 621.692L1094.71 622.6C1092.93 623.571 1091.48 625.03 1090.51 626.804L1089.6 628.384L1088.69 626.804C1087.76 625.007 1086.33 623.517 1084.58 622.509L1083 621.601L1084.58 620.693C1086.35 619.723 1087.81 618.264 1088.78 616.489L1089.6 615Z" fill="#BABABA"/>
<path d="M144.601 164L145.507 165.58C146.476 167.354 147.933 168.813 149.705 169.784L151.283 170.692L149.705 171.6C147.933 172.571 146.476 174.03 145.507 175.804L144.601 177.384L143.694 175.804C142.761 174.007 141.332 172.517 139.578 171.509L138 170.601L139.578 169.693C141.349 168.723 142.806 167.264 143.775 165.489L144.601 164Z" fill="#BABABA"/>
<path d="M144.601 671L145.507 672.58C146.476 674.354 147.933 675.813 149.705 676.784L151.283 677.692L149.705 678.6C147.933 679.571 146.476 681.03 145.507 682.804L144.601 684.384L143.694 682.804C142.761 681.007 141.332 679.517 139.578 678.509L138 677.601L139.578 676.693C141.349 675.723 142.806 674.264 143.775 672.489L144.601 671Z" fill="#BABABA"/>
<path d="M559.601 172L560.507 173.58C561.476 175.354 562.933 176.813 564.705 177.784L566.283 178.692L564.705 179.6C562.933 180.571 561.476 182.03 560.507 183.804L559.601 185.384L558.694 183.804C557.761 182.007 556.332 180.517 554.578 179.509L553 178.601L554.578 177.693C556.349 176.723 557.806 175.264 558.775 173.489L559.601 172Z" fill="#BABABA"/>
<path d="M559.601 679L560.507 680.58C561.476 682.354 562.933 683.813 564.705 684.784L566.283 685.692L564.705 686.6C562.933 687.571 561.476 689.03 560.507 690.804L559.601 692.384L558.694 690.804C557.761 689.007 556.332 687.517 554.578 686.509L553 685.601L554.578 684.693C556.349 683.723 557.806 682.264 558.775 680.489L559.601 679Z" fill="#BABABA"/>
<path d="M501.919 475.691L502.78 477.271C503.747 479.047 505.204 480.507 506.978 481.475L508.556 482.383L506.978 483.245C505.206 484.216 503.749 485.675 502.78 487.449L501.919 489.029L501.012 487.449C500.043 485.675 498.586 484.216 496.814 483.245L495.237 482.383L496.814 481.475C498.588 480.507 500.045 479.047 501.012 477.271L501.919 475.691Z" fill="#BABABA"/>
<path d="M492.682 946L493.543 947.58C494.51 949.356 495.968 950.816 497.741 951.784L499.319 952.692L497.741 953.555C495.97 954.525 494.513 955.984 493.543 957.759L492.682 959.339L491.775 957.759C490.806 955.984 489.349 954.525 487.578 953.555L486 952.692L487.578 951.784C489.351 950.816 490.809 949.356 491.775 947.58L492.682 946Z" fill="#BABABA"/>
</svg>
